<svg xmlns="http://www.w3.org/2000/svg" xmlns:xlink="http://www.w3.org/1999/xlink" width="152" height="50" viewBox="0 0 152 50">
  <defs>
    <clipPath id="clip-path">
      <rect id="Rectángulo_107" data-name="Rectángulo 107" width="152" height="50" fill="none"/>
    </clipPath>
  </defs>
  <g id="Logo_Loggro_" data-name="Logo Loggro" transform="translate(0 0)">
    <g id="Grupo_170" data-name="Grupo 170" transform="translate(0 0)" clip-path="url(#clip-path)">
      <path id="Trazado_459" data-name="Trazado 459" d="M59.837,38.85V35.81a9.173,9.173,0,0,1-7.315,3.253c-7.045,0-11.217-4.052-11.217-12.8s4.172-12.85,11.217-12.85c6.177,0,10.838,3.519,10.838,10.559V38.85c0,7.252-5.041,10.239-11.11,10.239-4.227,0-7.26-1.546-9.049-3.68a1.557,1.557,0,0,1-.324-.96A1.675,1.675,0,0,1,44.555,42.8a1.692,1.692,0,0,1,1.3.586,8.274,8.274,0,0,0,6.394,2.505c4.444,0,7.586-2.185,7.586-7.039m0-14.876c0-5.066-3.251-7.466-7.315-7.466-4.985,0-7.749,3.093-7.749,9.758,0,6.56,2.764,9.706,7.749,9.706a8.543,8.543,0,0,0,7.315-4.319Z" transform="translate(3.517 0.911)" fill="#424345"/>
      <path id="Trazado_460" data-name="Trazado 460" d="M82.71,38.85V35.81a9.172,9.172,0,0,1-7.316,3.253c-7.044,0-11.215-4.052-11.215-12.8s4.171-12.85,11.215-12.85c6.179,0,10.838,3.519,10.838,10.559V38.85c0,7.252-5.039,10.239-11.109,10.239-4.227,0-7.261-1.546-9.049-3.68a1.563,1.563,0,0,1-.324-.96A1.675,1.675,0,0,1,67.43,42.8a1.692,1.692,0,0,1,1.3.586,8.274,8.274,0,0,0,6.394,2.505c4.444,0,7.586-2.185,7.586-7.039m0-14.876c0-5.066-3.251-7.466-7.316-7.466-4.984,0-7.748,3.093-7.748,9.758,0,6.56,2.764,9.706,7.748,9.706a8.541,8.541,0,0,0,7.316-4.319Z" transform="translate(5.465 0.911)" fill="#424345"/>
      <path id="Trazado_461" data-name="Trazado 461" d="M91.438,12.97C92.521,10.517,95.232,8.7,98.97,8.7a1.653,1.653,0,1,1,0,3.306c-4.986,0-7.532,3.412-7.532,8.319V32.273a1.734,1.734,0,0,1-3.468,0V10.624a1.734,1.734,0,0,1,3.468,0Z" transform="translate(7.491 0.591)" fill="#424345"/>
      <path id="Trazado_463" data-name="Trazado 463" d="M21.378,29.241a1.322,1.322,0,1,1-1.322-1.3,1.312,1.312,0,0,1,1.322,1.3" transform="translate(1.595 1.897)" fill="#e75e15"/>
      <path id="Trazado_464" data-name="Trazado 464" d="M25.394,29.182a1.262,1.262,0,1,1-1.262-1.242,1.253,1.253,0,0,1,1.262,1.242" transform="translate(1.947 1.897)" fill="#e75e15"/>
      <path id="Trazado_465" data-name="Trazado 465" d="M29.475,29.182a1.263,1.263,0,1,1-1.263-1.242,1.253,1.253,0,0,1,1.263,1.242" transform="translate(2.295 1.897)" fill="#e75e15"/>
      <path id="Trazado_467" data-name="Trazado 467" d="M109.416,31.9c-6.227.146-7.718-3.548-7.776-3.711a.834.834,0,0,1,.493-1.08.858.858,0,0,1,1.1.483c.051.129,1.2,2.751,6.145,2.635,5.039-.119,6.008-2.882,6.016-2.914a.849.849,0,0,1,1.067-.539.835.835,0,0,1,.551,1.055c-.049.166-1.36,3.926-7.594,4.072" transform="translate(8.65 1.816)" fill="#e75e15"/>
      <path id="Trazado_468" data-name="Trazado 468" d="M10.388,43.864a1.7,1.7,0,0,0-.373-3.292c-.078-.011-.912-.141-1.082-.168-2.641-.424-4.961-2.153-5.248-8.08V9.469A1.814,1.814,0,0,0,1.843,7.656,1.813,1.813,0,0,0,0,9.469V32.683c0,.009.007.022.008.033.149,7.516,3.792,10.9,9.442,11.225a2.811,2.811,0,0,0,.939-.077" transform="translate(0 0.52)" fill="#424345"/>
      <path id="Trazado_469" data-name="Trazado 469" d="M130.994,10.185a1.948,1.948,0,0,1,1.278-1.815V1.742A1.73,1.73,0,0,0,131.8.486,1.676,1.676,0,0,0,130.544,0a1.816,1.816,0,0,0-1.3.486,1.652,1.652,0,0,0-.514,1.256V8.667h-6.626a1.614,1.614,0,0,0-1.152.426,1.406,1.406,0,0,0-.453,1.072,1.468,1.468,0,0,0,.453,1.094,1.571,1.571,0,0,0,1.152.446h6.626V18.47a1.6,1.6,0,0,0,.514,1.214,1.892,1.892,0,0,0,2.532,0,1.685,1.685,0,0,0,.494-1.256V12a1.948,1.948,0,0,1-1.278-1.815" transform="translate(10.261 0)" fill="#e75e15"/>
      <path id="Trazado_470" data-name="Trazado 470" d="M133.659,9.634a1.543,1.543,0,1,1-1.542-1.518,1.53,1.53,0,0,1,1.542,1.518" transform="translate(11.118 0.551)" fill="#e75e15"/>
      <path id="Trazado_471" data-name="Trazado 471" d="M136.943,9.629a1.472,1.472,0,1,1-1.471-1.449,1.461,1.461,0,0,1,1.471,1.449" transform="translate(11.41 0.555)" fill="#e75e15"/>
      <path id="Trazado_472" data-name="Trazado 472" d="M140.3,9.629a1.473,1.473,0,1,1-1.473-1.449A1.462,1.462,0,0,1,140.3,9.629" transform="translate(11.696 0.555)" fill="#e75e15"/>
      <path id="Trazado_512" data-name="Trazado 512" d="M29.623,5.534H16.492c-6.143,0-9.678,3.678-9.678,11.957,0,8.407,3.535,12.022,9.678,12.022H27.235c.669-.018,1.263.017,2.388,0,6.14,0,9.678-3.615,9.678-12.022,0-8.278-3.538-11.957-9.678-11.957m4.641,20.258c.042.735-.154,1.591-1.213,1.186a8.766,8.766,0,0,0-2.843-.678c-.052,0-3.018,0-3.172.006H16.727c-3.208,0-6.493-1.045-6.493-8.8,0-7.7,3.285-8.736,6.493-8.736H29.383c3.21,0,6.493,1.039,6.493,8.736,0,3.656-.727,5.822-1.834,7.089a5.988,5.988,0,0,1,.223,1.2" transform="translate(2.965 10.506)" fill="#424345"/>
      <path id="Trazado_8065" data-name="Trazado 8065" d="M29.623,5.534H16.492c-6.143,0-9.678,3.678-9.678,11.957,0,8.407,3.535,12.022,9.678,12.022H27.235c.669-.018,1.263.017,2.388,0,6.14,0,9.678-3.615,9.678-12.022,0-8.278-3.538-11.957-9.678-11.957m4.641,20.258c.042.735-.154,1.591-1.213,1.186a8.766,8.766,0,0,0-2.843-.678c-.052,0-3.018,0-3.172.006H16.727c-3.208,0-6.493-1.045-6.493-8.8,0-7.7,3.285-8.736,6.493-8.736H29.383c3.21,0,6.493,1.039,6.493,8.736,0,3.656-.727,5.822-1.834,7.089a5.988,5.988,0,0,1,.223,1.2" transform="translate(94.886 10.506)" fill="#424345"/>
    </g>
  </g>
</svg>

